<?xml version="1.0" encoding="iso-8859-1"?>
<!-- Generator: Adobe Illustrator 16.0.0, SVG Export Plug-In . SVG Version: 6.00 Build 0)  -->
<!DOCTYPE svg PUBLIC "-//W3C//DTD SVG 1.1//EN" "http://www.w3.org/Graphics/SVG/1.1/DTD/svg11.dtd">
<svg version="1.1" id="Layer_1" xmlns="http://www.w3.org/2000/svg" xmlns:xlink="http://www.w3.org/1999/xlink" x="0px" y="0px"
	 width="207.438px" height="57.229px" viewBox="0 0 207.438 57.229" style="enable-background:new 0 0 207.438 57.229;"
	 xml:space="preserve">
<path d="M29.55,1.883c8.438,0,15.047,2.414,19.828,7.242s7.172,11.496,7.172,20.004c0,8.484-2.391,15.141-7.172,19.969
	S37.987,56.34,29.55,56.34c-8.415,0-15.018-2.414-19.811-7.242C4.946,44.27,2.55,37.614,2.55,29.129
	c0-8.508,2.396-15.176,7.189-20.004C14.532,4.297,21.135,1.883,29.55,1.883z M29.55,11.692c-4.125,0-7.325,1.523-9.598,4.57
	c-2.273,3.047-3.41,7.336-3.41,12.867c0,5.508,1.137,9.785,3.41,12.832c2.273,3.047,5.472,4.57,9.598,4.57
	c4.148,0,7.359-1.523,9.633-4.57c2.273-3.047,3.41-7.324,3.41-12.832c0-5.531-1.137-9.82-3.41-12.867
	C36.909,13.215,33.698,11.692,29.55,11.692z"/>
<path d="M58.78,2.833h14.273c7.968,0,13.904,0.568,17.807,1.705s7.248,3.064,10.037,5.783c2.461,2.367,4.289,5.098,5.484,8.191
	s1.793,6.598,1.793,10.512c0,3.961-0.598,7.494-1.793,10.6s-3.023,5.842-5.484,8.209c-2.813,2.719-6.188,4.646-10.125,5.783
	s-9.844,1.705-17.719,1.705H58.78V2.833z M72.315,13.063V45.09h4.852c5.531,0,9.756-1.371,12.674-4.113s4.377-6.727,4.377-11.953
	c0-5.203-1.454-9.164-4.359-11.883c-2.906-2.719-7.137-4.078-12.691-4.078H72.315z"/>
<path d="M124.539,55.321l-20.04-52.488h7.418l16.629,44.191L145.21,2.833h7.383l-20.004,52.488H124.539z"/>
<path d="M154.257,2.833h7.102v52.488h-7.102V2.833z"/>
<path d="M187.644,48.219c4.055,0,6.184,0.203,8.387-1.391s2.672-2.512,2.672-5.465c0-2.578-0.791-4.594-2.373-6.047
	s-4.178-2.543-7.787-3.27l-4.324-0.844c-5.297-1.055-9.129-2.707-11.496-4.957s-3.551-5.379-3.551-9.387
	c0-4.641,1.635-8.297,4.904-10.969s7.775-4.008,13.518-4.008c2.461,0,4.744,0,7.523,0c2.593,0,6.471,0,9.84,0l-0.125,5.78
	c-2.963,0-6.088,0-9.588,0c-2.473,0-4.615-0.015-6.842-0.015c-3.867,0-6.85,0.75-8.947,2.25s-3.146,3.633-3.146,6.398
	c0,2.32,0.697,4.072,2.092,5.256s4.037,2.139,7.928,2.865l4.289,0.879c5.297,1.008,9.205,2.783,11.725,5.326
	s3.779,5.947,3.779,10.213c0,5.086-1.705,8.941-5.115,11.566s-7.408,2.938-13.994,2.938L187.644,48.219z"/>
<path d="M145.978,9.934V2.833h11.161v7.102H145.978z"/>
<path d="M154.675,55.321v-7.102h32.969v7.102H154.675z"/>
</svg>
